# Blender 4.5.1 LTS
# www.blender.org
mtllib character.mtl
o Cube.002
v 0.121338 1.186762 -0.121339
v 0.121338 1.429439 -0.121338
v 0.121338 1.186762 0.121338
v 0.121338 1.429439 0.121338
v -0.121339 1.186762 -0.121338
v -0.121339 1.429439 -0.121338
v -0.121339 1.186762 0.121339
v -0.121338 1.429439 0.121339
v 0.154684 1.153416 -0.000000
v 0.154684 1.308100 -0.154684
v 0.154684 1.462784 -0.000000
v 0.154684 1.308100 0.154684
v 0.000000 1.153416 0.154684
v 0.000000 1.462784 0.154684
v -0.154684 1.308100 0.154684
v -0.154684 1.153416 0.000000
v -0.154684 1.462784 0.000000
v -0.154684 1.308100 -0.154684
v -0.000000 1.153416 -0.154684
v -0.000000 1.462784 -0.154684
v 0.000000 1.511723 0.000000
v -0.000000 1.104477 0.000000
v -0.000000 1.308100 -0.203623
v -0.203623 1.308100 0.000000
v 0.000000 1.308100 0.203623
v 0.203623 1.308100 -0.000000
v 0.124247 0.577178 -0.121338
v 0.186745 1.007177 -0.121338
v 0.124248 0.577178 0.121338
v 0.186745 1.007177 0.121338
v -0.124248 0.577178 -0.121338
v -0.186745 1.007177 -0.121338
v -0.124248 0.577178 0.121339
v -0.186745 1.007177 0.121339
v 0.191906 0.548501 -0.000000
v 0.249593 0.746117 -0.154684
v 0.235204 1.048989 -0.000000
v 0.249593 0.746117 0.154684
v -0.000000 0.596279 0.154684
v -0.000000 1.037488 0.154684
v -0.249593 0.746117 0.154684
v -0.191906 0.548501 0.000000
v -0.235204 1.048989 0.000000
v -0.249593 0.746117 -0.154684
v -0.000000 0.603915 -0.154684
v -0.000000 1.037488 -0.154684
v -0.000000 1.112167 -0.000000
v -0.000000 0.788030 -0.203623
v -0.333165 0.689881 0.000000
v 0.000000 0.765962 0.203623
v 0.333165 0.689881 -0.000000
v 0.128669 0.081732 -0.121338
v 0.128670 0.081732 0.121338
v -0.128670 0.081732 -0.121338
v -0.128670 0.081732 0.121339
v 0.184008 0.033724 -0.000000
v -0.000000 0.061216 0.154684
v -0.184009 0.033724 0.000000
v -0.000000 0.061216 -0.154684
v -0.000000 0.012277 0.000000
vn 0.9017 0.3057 0.3057
vn -0.3057 0.3057 0.9017
vn -0.9017 0.3057 -0.3057
vn 0.3057 0.3057 -0.9017
vn -0.3057 -0.9017 -0.3057
vn 0.3057 0.9017 -0.3057
vn -0.3057 0.9017 -0.3057
vn -0.3057 0.9017 0.3057
vn 0.3057 0.9017 0.3057
vn 0.3057 -0.9017 -0.3057
vn 0.3057 -0.9017 0.3057
vn -0.3057 -0.9017 0.3057
vn 0.3057 -0.3057 -0.9017
vn -0.3057 -0.3057 -0.9017
vn -0.3057 0.3057 -0.9017
vn -0.9017 -0.3057 -0.3057
vn -0.9017 -0.3057 0.3057
vn -0.9017 0.3057 0.3057
vn -0.3057 -0.3057 0.9017
vn 0.3057 -0.3057 0.9017
vn 0.3057 0.3057 0.9017
vn 0.9017 -0.3057 0.3057
vn 0.9017 -0.3057 -0.3057
vn 0.9017 0.3057 -0.3057
vn 0.8785 0.2497 0.4072
vn -0.2017 0.1728 0.9641
vn -0.8785 0.2497 -0.4072
vn 0.2111 0.1808 -0.9606
vn 0.2550 0.0011 0.9669
vn 0.2280 0.8821 -0.4123
vn -0.2280 0.8821 -0.4123
vn -0.2280 0.8821 0.4123
vn 0.2280 0.8821 0.4123
vn -0.8916 -0.0031 -0.4529
vn -0.2550 0.0011 -0.9669
vn 0.8916 -0.0031 0.4529
vn 0.1578 -0.2769 -0.9478
vn -0.1578 -0.2769 -0.9478
vn -0.2111 0.1808 -0.9606
vn -0.6194 -0.5880 -0.5202
vn -0.6194 -0.5880 0.5202
vn -0.8785 0.2497 0.4072
vn -0.1762 -0.2935 0.9396
vn 0.1762 -0.2935 0.9396
vn 0.2017 0.1728 0.9641
vn 0.6194 -0.5880 0.5202
vn 0.6194 -0.5880 -0.5202
vn 0.8785 0.2497 -0.4072
vn -0.1615 -0.9205 -0.3557
vn 0.1615 -0.9205 -0.3557
vn 0.1615 -0.9205 0.3557
vn -0.1615 -0.9205 0.3557
vn 0.2550 0.0011 -0.9669
vn 0.8916 -0.0031 -0.4529
vn -0.8916 -0.0031 0.4529
vn -0.2550 0.0011 0.9669
vt 0.262500 0.512500
vt 0.487500 0.512500
vt 0.487500 0.737500
vt 0.262500 0.737500
vt 0.502729 0.256247
vt 0.502729 0.463800
vt 0.339918 0.419057
vt 0.295175 0.256247
vt 0.502729 0.048693
vt 0.339918 0.093436
vt 0.665539 0.093436
vt 0.710282 0.256247
vt 0.665539 0.419057
vt 0.512500 0.512500
vt 0.737500 0.512500
vt 0.737500 0.737500
vt 0.512500 0.737500
vt 0.012500 0.512500
vt 0.237500 0.512500
vt 0.237500 0.737500
vt 0.012500 0.737500
vt 0.012500 0.762500
vt 0.237500 0.762500
vt 0.237500 0.987500
vt 0.012500 0.987500
vt 0.512500 0.762500
vt 0.737500 0.762500
vt 0.737500 0.987500
vt 0.512500 0.987500
s 0
f 26/1/1 11/2/1 4/3/1 12/4/1
f 25/5/2 14/6/2 8/7/2 15/8/2
f 24/1/3 17/2/3 6/3/3 18/4/3
f 23/1/4 20/2/4 2/3/4 10/4/4
f 22/1/5 16/2/5 5/3/5 19/4/5
f 21/1/6 11/2/6 2/3/6 20/4/6
f 17/1/7 21/2/7 20/3/7 6/4/7
f 8/1/8 14/2/8 21/3/8 17/4/8
f 14/1/9 4/2/9 11/3/9 21/4/9
f 9/1/10 22/2/10 19/3/10 1/4/10
f 3/1/11 13/2/11 22/3/11 9/4/11
f 13/1/12 7/2/12 16/3/12 22/4/12
f 19/1/13 23/2/13 10/3/13 1/4/13
f 5/1/14 18/2/14 23/3/14 19/4/14
f 18/1/15 6/2/15 20/3/15 23/4/15
f 16/1/16 24/2/16 18/3/16 5/4/16
f 7/1/17 15/2/17 24/3/17 16/4/17
f 15/1/18 8/2/18 17/3/18 24/4/18
f 13/9/19 25/5/19 15/8/19 7/10/19
f 3/11/20 12/12/20 25/5/20 13/9/20
f 12/12/21 4/13/21 14/6/21 25/5/21
f 9/1/22 26/2/22 12/3/22 3/4/22
f 1/1/23 10/2/23 26/3/23 9/4/23
f 10/1/24 2/2/24 11/3/24 26/4/24
f 51/14/25 37/15/25 30/16/25 38/17/25
f 50/14/26 40/15/26 34/16/26 41/17/26
f 49/18/27 43/19/27 32/20/27 44/21/27
f 48/22/28 46/23/28 28/24/28 36/25/28
f 29/26/29 39/27/29 57/28/29 53/29/29
f 47/22/30 37/23/30 28/24/30 46/25/30
f 43/18/31 47/19/31 46/20/31 32/21/31
f 34/14/32 40/15/32 47/16/32 43/17/32
f 40/14/33 30/15/33 37/16/33 47/17/33
f 42/18/34 31/19/34 54/20/34 58/21/34
f 31/18/35 45/19/35 59/20/35 54/21/35
f 35/26/36 29/27/36 53/28/36 56/29/36
f 45/22/37 48/23/37 36/24/37 27/25/37
f 31/18/38 44/19/38 48/20/38 45/21/38
f 44/18/39 32/19/39 46/20/39 48/21/39
f 42/18/40 49/19/40 44/20/40 31/21/40
f 33/14/41 41/15/41 49/16/41 42/17/41
f 41/14/42 34/15/42 43/16/42 49/17/42
f 39/14/43 50/15/43 41/16/43 33/17/43
f 29/14/44 38/15/44 50/16/44 39/17/44
f 38/14/45 30/15/45 40/16/45 50/17/45
f 35/14/46 51/15/46 38/16/46 29/17/46
f 27/22/47 36/23/47 51/24/47 35/25/47
f 36/22/48 28/23/48 37/24/48 51/25/48
f 60/18/49 58/19/49 54/20/49 59/21/49
f 56/22/50 60/23/50 59/24/50 52/25/50
f 53/26/51 57/27/51 60/28/51 56/29/51
f 57/26/52 55/27/52 58/28/52 60/29/52
f 45/22/53 27/23/53 52/24/53 59/25/53
f 27/22/54 35/23/54 56/24/54 52/25/54
f 33/26/55 42/27/55 58/28/55 55/29/55
f 39/26/56 33/27/56 55/28/56 57/29/56
