# Blender 3.6.0
# www.blender.org
o Circle
v 0.000000 -3.203975 0.000000
v -2.774724 1.601987 0.000000
v 2.774724 1.601987 0.000000
v -1.383494 -4.064973 -18.127663
v -2.118726 -1.844714 -18.590530
v 0.122692 -2.124640 -17.540810
v -0.645044 1.999990 -36.380203
v -1.011733 2.943007 -36.706581
v 0.164156 3.332344 -36.323299
v 2.346144 9.758530 -40.480839
v -0.611305 0.057101 -26.258820
v -1.638157 -1.428499 -26.671755
v -2.199223 0.102220 -27.075745
v -0.641919 0.540539 -28.175896
v -5.232589 -4.729444 -32.269764
v -1.592269 -0.847379 -28.502989
v -5.850773 -3.905026 -31.822412
v -5.580257 -3.842855 -32.764832
v -9.029755 -8.899411 -35.805435
v -9.435730 -9.094720 -36.141212
v -9.145263 -8.432859 -36.507408
v -14.211218 -7.287069 -34.425510
v 3.840874 0.008014 -34.946747
v 10.140257 5.136947 -39.369518
v 2.486563 8.917041 -39.361950
v -5.510028 -1.668342 -38.126926
v 0.817275 -7.773033 -38.998138
v 9.580506 -3.999680 -39.369518
v 6.970867 9.298391 -46.174156
v -4.124282 5.540198 -45.964619
v -2.498942 -7.281316 -46.037834
v 5.871935 -7.524016 -46.174156
v 11.023705 0.337883 -46.174126
v 3.213092 -0.088765 -50.379551
v 2.971480 4.882033 -36.161060
v 7.647773 3.034608 -36.300304
v 6.979733 8.160735 -38.772179
v 10.672718 0.255329 -38.772194
v 7.283090 -2.356883 -36.283390
v -1.457763 -0.681892 -35.446281
v -2.725652 4.736538 -38.165359
v 1.990222 -4.502975 -35.882931
v -3.034729 -5.879715 -37.890167
v 5.829076 -6.442308 -38.717922
v 11.654168 3.063507 -42.771835
v 11.329867 -2.314741 -42.771835
v 5.099459 10.710574 -42.771835
v 9.497823 8.261116 -42.771835
v -6.379780 1.894740 -42.027416
v -1.146043 8.936666 -42.715134
v -1.472050 -8.708756 -42.445309
v -4.584943 -5.492070 -41.866131
v 8.492290 -6.352651 -42.771835
v 3.433682 -8.782699 -42.702530
v 9.814556 5.411239 -46.771484
v 1.872823 9.366568 -46.771500
v -4.682269 -2.164002 -46.632812
v 1.137402 -8.570190 -46.766434
v 9.263999 -4.160328 -46.771484
v 5.200639 6.054637 -49.243370
v 8.013955 0.392689 -49.243351
v -1.123823 3.208295 -49.182484
v -0.580838 -4.916742 -49.206619
v 4.848074 -5.206324 -49.243370
v -10.555946 -7.551956 -30.914948
v -6.101436 -3.961527 -36.549271
v -13.345181 0.864995 -36.381180
v -19.777641 -7.189317 -36.169277
v -13.811978 -14.600037 -36.097160
v -3.975461 -12.430661 -37.063953
v -9.066955 0.319423 -46.788395
v -17.286726 -2.780205 -45.959122
v -18.159672 -12.003913 -45.047249
v -6.768566 -14.667402 -44.836029
v -3.178940 -8.796926 -45.435246
v -10.667325 -6.774602 -51.496143
v -12.101683 -2.535447 -32.288132
v -7.457797 -5.180996 -32.871368
v -9.208212 -0.161155 -35.952782
v -4.338129 -8.812035 -36.132587
v -6.834154 -10.582530 -33.114613
v -15.888937 -6.970803 -31.780439
v -17.070942 -2.288291 -35.294720
v -12.422583 -11.729784 -32.190773
v -18.441086 -11.581795 -35.214844
v -7.739739 -14.469472 -36.034027
v -4.092804 -6.840796 -41.104813
v -2.467307 -11.404584 -40.888382
v -11.432163 1.660825 -41.476517
v -7.290922 -0.777714 -41.548466
v -19.763710 -4.745264 -41.015087
v -16.158543 0.053426 -41.212509
v -17.210157 -14.273665 -40.519466
v -20.554644 -10.236985 -40.922863
v -3.984611 -14.471133 -40.867245
v -10.050043 -15.885441 -40.669849
v -5.710284 -3.522419 -47.487881
v -13.274477 0.001193 -47.198734
v -18.846033 -7.594361 -46.265701
v -12.991534 -14.168003 -45.628098
v -3.445982 -12.067221 -45.733982
v -9.485137 -2.425252 -50.924320
v -5.852627 -7.194518 -49.964821
v -14.635936 -4.410400 -50.099651
v -14.758587 -9.780729 -49.274364
v -8.516628 -11.364953 -49.150143
vn -0.7942 0.6069 0.0318
vn -0.0000 -0.9782 0.2078
vn 0.9505 0.3098 -0.0239
vn -0.8317 0.5465 0.0975
vn 0.3800 -0.8859 -0.2660
vn 0.9343 0.2938 0.2019
vn -0.8166 0.4824 0.3171
vn 0.4201 -0.5892 -0.6902
vn 0.2110 0.3920 0.8955
vn 0.9299 0.3603 0.0739
vn -0.0078 -0.9702 -0.2421
vn -0.8317 0.5231 0.1862
vn 0.5298 -0.8426 0.0965
vn 0.0985 -0.9646 -0.2448
vn -0.8323 0.5340 0.1486
vn 0.5115 0.3127 -0.8004
vn -0.7944 0.5844 0.1655
vn 0.7462 0.0998 -0.6582
vn -0.0953 -0.8061 0.5841
vn -0.7305 0.0914 0.6767
vn 0.7125 -0.6834 0.1594
vn 0.3740 0.7996 0.4699
vn -0.4193 -0.2917 -0.8597
vn 0.1319 0.2617 0.9561
vn 0.7091 0.1613 0.6864
vn -0.1199 0.2198 0.9681
vn -0.0698 -0.1752 0.9821
vn 0.1812 -0.2706 0.9455
vn 0.9336 0.1421 0.3289
vn 0.0773 0.8568 0.5099
vn -0.7953 0.3487 0.4959
vn -0.2963 -0.8536 0.4285
vn 0.5533 -0.7573 0.3468
vn 0.9095 0.3773 0.1747
vn -0.2594 0.9223 0.2864
vn -0.9717 -0.2361 0.0010
vn -0.0008 -0.9649 0.2625
vn 0.8107 -0.5697 0.1347
vn 0.4685 0.4587 -0.7550
vn -0.4214 0.5010 -0.7559
vn -0.6566 -0.3574 -0.6642
vn 0.2416 -0.7339 -0.6348
vn 0.7004 -0.1824 -0.6901
vn 0.2411 -0.1363 -0.9609
vn 0.5189 -0.2934 -0.8029
vn 0.4927 -0.6075 -0.6231
vn -0.0185 -0.2223 -0.9748
vn -0.0358 -0.5666 -0.8232
vn -0.3610 -0.6294 -0.6882
vn -0.2771 -0.0157 -0.9607
vn -0.5476 -0.0341 -0.8361
vn -0.6850 0.1120 -0.7199
vn -0.1056 0.2138 -0.9712
vn -0.2076 0.4425 -0.8724
vn 0.0965 0.6558 -0.7487
vn 0.2186 0.1086 -0.9697
vn 0.4842 0.2406 -0.8412
vn 0.7120 0.0877 -0.6967
vn 0.8958 -0.3079 -0.3206
vn 0.8082 -0.5680 -0.1554
vn 0.6560 -0.7080 -0.2615
vn 0.2338 -0.9551 -0.1821
vn -0.0173 -0.9989 -0.0425
vn -0.3677 -0.8955 -0.2507
vn -0.8756 -0.4043 -0.2644
vn -0.9606 -0.2366 -0.1456
vn -0.9009 0.1018 -0.4218
vn -0.5399 0.7788 -0.3193
vn -0.2727 0.9567 -0.1015
vn 0.0543 0.9325 -0.3572
vn 0.7257 0.5862 -0.3602
vn 0.9057 0.3758 -0.1960
vn 0.9295 0.1839 -0.3196
vn 0.4326 -0.9013 -0.0229
vn 0.4213 -0.8696 0.2575
vn 0.2150 -0.8930 0.3953
vn -0.7230 -0.6877 -0.0666
vn -0.6860 -0.6998 0.1993
vn -0.8346 -0.4749 0.2791
vn -0.7938 0.5998 0.1006
vn -0.7567 0.5899 0.2819
vn -0.4650 0.7251 0.5080
vn 0.4844 0.8697 -0.0946
vn 0.4623 0.8301 0.3119
vn 0.6644 0.6088 0.4336
vn 0.9890 -0.0596 -0.1355
vn 0.9783 -0.0590 0.1986
vn 0.9033 -0.2778 0.3269
vn 0.4855 -0.5685 0.6641
vn 0.2872 -0.5637 0.7745
vn 0.1499 -0.7096 0.6884
vn -0.1135 -0.6636 0.7394
vn -0.2659 -0.3429 0.9009
vn -0.4933 -0.2430 0.8352
vn -0.5759 0.2550 0.7767
vn -0.3173 0.3650 0.8753
vn -0.2846 0.5745 0.7674
vn 0.6969 -0.2720 0.6636
vn 0.6107 -0.0388 0.7909
vn 0.3495 -0.0207 0.9367
vn 0.0018 0.6216 0.7833
vn 0.2024 0.4466 0.8715
vn 0.5408 0.4215 0.7279
vn 0.3042 0.3376 0.8908
vn 0.8394 0.3415 0.4228
vn -0.1324 0.2236 0.9657
vn -0.1791 -0.2133 0.9604
vn 0.2257 -0.3754 0.8990
vn 0.9186 0.3497 0.1840
vn 0.2121 0.9503 0.2280
vn -0.8700 0.4412 0.2200
vn -0.4781 -0.8230 0.3067
vn 0.5187 -0.7539 0.4032
vn 0.8781 0.4698 0.0903
vn -0.3205 0.9469 0.0276
vn -0.9872 0.1434 0.0695
vn -0.2167 -0.9716 0.0948
vn 0.8731 -0.4304 0.2288
vn 0.6167 0.6258 -0.4776
vn -0.5749 0.5660 -0.5909
vn -0.6635 -0.2934 -0.6882
vn 0.0143 -0.7912 -0.6114
vn 0.8573 -0.0230 -0.5142
vn 0.2577 -0.3412 -0.9040
vn 0.4579 -0.4431 -0.7707
vn 0.3481 -0.6710 -0.6547
vn -0.1077 -0.4920 -0.8639
vn -0.1550 -0.6676 -0.7282
vn -0.3562 -0.6779 -0.6431
vn -0.3974 -0.1305 -0.9083
vn -0.6252 -0.1046 -0.7734
vn -0.7538 0.2819 -0.5936
vn -0.2251 0.1869 -0.9562
vn -0.3438 0.5877 -0.7324
vn -0.0092 0.8336 -0.5523
vn 0.3061 0.0418 -0.9511
vn 0.6790 0.3923 -0.6206
vn 0.8697 0.2524 -0.4241
vn 0.9799 -0.0627 -0.1893
vn 0.8896 -0.4410 -0.1194
vn 0.5250 -0.7847 -0.3295
vn -0.0372 -0.9509 -0.3073
vn -0.2192 -0.9548 -0.2007
vn -0.3953 -0.8517 -0.3440
vn -0.8801 -0.2488 -0.4045
vn -0.9612 0.1344 -0.2409
vn -0.8936 0.3101 -0.3245
vn -0.6043 0.7391 -0.2976
vn -0.3258 0.9309 -0.1651
vn -0.0471 0.9633 -0.2642
vn 0.7383 0.6653 -0.1109
vn 0.8838 0.4676 0.0191
vn 0.9022 0.4313 -0.0044
vn 0.2224 -0.9689 -0.1081
vn 0.2289 -0.9570 0.1782
vn 0.0177 -0.9587 0.2840
vn -0.7517 -0.6391 -0.1627
vn -0.7694 -0.6237 0.1380
vn -0.9306 -0.2195 0.2929
vn -0.7920 0.5883 -0.1630
vn -0.7919 0.5997 0.1152
vn -0.5935 0.7755 0.2154
vn 0.5075 0.8616 0.0084
vn 0.5068 0.8584 0.0791
vn 0.7738 0.6014 0.1989
vn 0.9403 0.3371 0.0462
vn 0.9240 0.3376 0.1794
vn 0.9304 -0.0011 0.3666
vn 0.4949 -0.5926 0.6355
vn 0.2501 -0.6180 0.7453
vn 0.0112 -0.8077 0.5895
vn -0.3349 -0.6985 0.6324
vn -0.4229 -0.3790 0.8231
vn -0.7439 -0.0822 0.6632
vn -0.7239 0.2879 0.6270
vn -0.4413 0.4647 0.7676
vn -0.3654 0.6584 0.6580
vn 0.7901 -0.0773 0.6081
vn 0.7525 0.0573 0.6560
vn 0.5218 0.0218 0.8528
vn 0.1308 0.7817 0.6097
vn 0.4168 0.5767 0.7027
vn 0.7272 0.5250 0.4422
vn -0.8658 0.4998 0.0247
vn -0.2009 -0.9644 0.1717
vn 0.8626 0.4980 -0.0895
vn -0.8528 0.5140 0.0918
vn 0.0768 -0.9588 -0.2734
vn 0.8668 0.4265 0.2584
vn 0.9421 0.3272 0.0729
vn 0.0874 -0.9708 -0.2236
vn -0.8021 0.5599 0.2076
vn 0.1201 -0.8022 0.5848
vn -0.8319 0.5347 0.1481
vn 0.1503 0.5562 -0.8174
vn -0.7526 0.0705 0.6547
vn 0.4032 0.6512 -0.6429
vn -0.8548 0.3562 0.3774
vn 0.8690 -0.4688 -0.1580
vt 0.278815 0.259490
vt 0.260136 0.022170
vt 0.278815 0.016113
vt 0.123044 0.452169
vt 0.162598 0.215226
vt 0.195944 0.447594
vt 0.090819 0.454547
vt 0.016113 0.207570
vt 0.047832 0.201725
vt 0.909004 0.408385
vt 0.921209 0.296029
vt 0.923252 0.409384
vt 0.169724 0.103946
vt 0.179513 0.016113
vt 0.195944 0.022163
vt 0.410805 0.901284
vt 0.429743 0.782867
vt 0.429743 0.916905
vt 0.901704 0.916199
vt 0.895961 0.897403
vt 0.910906 0.790741
vt 0.243283 0.896476
vt 0.228170 0.905196
vt 0.228170 0.791589
vt 0.910906 0.905785
vt 0.052046 0.092090
vt 0.074216 0.086916
vt 0.134904 0.206132
vt 0.167021 0.124075
vt 0.302717 0.895446
vt 0.283560 0.791589
vt 0.302717 0.802144
vt 0.429607 0.735240
vt 0.411515 0.653023
vt 0.421799 0.646685
vt 0.146953 0.115806
vt 0.908037 0.435191
vt 0.923477 0.435442
vt 0.346736 0.893298
vt 0.344895 0.797917
vt 0.346736 0.791589
vt 0.858522 0.743582
vt 0.866200 0.679300
vt 0.878467 0.743033
vt 0.044287 0.022388
vt 0.477860 0.796615
vt 0.484774 0.793609
vt 0.484774 0.864496
vt 0.851889 0.677064
vt 0.878467 0.612274
vt 0.416211 0.554928
vt 0.867813 0.611519
vt 0.859567 0.550833
vt 0.527352 0.850648
vt 0.516999 0.847344
vt 0.527352 0.793609
vt 0.341723 0.124176
vt 0.364940 0.059866
vt 0.405078 0.108139
vt 0.777714 0.647250
vt 0.819505 0.660527
vt 0.785690 0.711111
vt 0.363456 0.193590
vt 0.311040 0.171111
vt 0.692765 0.407706
vt 0.724232 0.364138
vt 0.731566 0.440825
vt 0.731401 0.680999
vt 0.472796 0.090939
vt 0.439319 0.039390
vt 0.504319 0.047198
vt 0.392503 0.248101
vt 0.445531 0.178886
vt 0.462406 0.237915
vt 0.776864 0.332303
vt 0.742336 0.291715
vt 0.817358 0.295505
vt 0.784260 0.460481
vt 0.779792 0.402649
vt 0.835448 0.433277
vt 0.731656 0.604651
vt 0.515229 0.134494
vt 0.732560 0.154258
vt 0.752896 0.084523
vt 0.802907 0.174461
vt 0.834337 0.358091
vt 0.820620 0.486646
vt 0.598745 0.232346
vt 0.547455 0.217248
vt 0.571362 0.174892
vt 0.681559 0.098742
vt 0.640205 0.186271
vt 0.614379 0.091639
vt 0.869030 0.172226
vt 0.837146 0.103747
vt 0.896868 0.129497
vt 0.331535 0.727322
vt 0.272376 0.756771
vt 0.297924 0.689596
vt 0.377204 0.610880
vt 0.362719 0.669932
vt 0.324229 0.608734
vt 0.260184 0.629158
vt 0.230321 0.708541
vt 0.228170 0.759364
vt 0.566736 0.016675
vt 0.547455 0.093467
vt 0.640551 0.016113
vt 0.276458 0.551659
vt 0.347575 0.551659
vt 0.731327 0.746523
vt 0.677181 0.758516
vt 0.685236 0.711592
vt 0.873480 0.448380
vt 0.378580 0.717706
vt 0.875812 0.325379
vt 0.875812 0.391278
vt 0.839332 0.216203
vt 0.896669 0.192757
vt 0.782649 0.023059
vt 0.700335 0.168898
vt 0.652460 0.240957
vt 0.677314 0.641765
vt 0.685702 0.578201
vt 0.763805 0.210924
vt 0.732560 0.016113
vt 0.732030 0.550833
vt 0.786110 0.592808
vt 0.777590 0.758516
vt 0.688104 0.336123
vt 0.335654 0.240137
vt 0.756228 0.492881
vt 0.819664 0.726004
vt 0.311040 0.093501
vt 0.397671 0.016113
vt 0.527957 0.731565
vt 0.477860 0.703107
vt 0.525105 0.661896
vt 0.406461 0.421665
vt 0.445634 0.453785
vt 0.376226 0.484982
vt 0.593610 0.699046
vt 0.571002 0.759774
vt 0.655879 0.474547
vt 0.601618 0.470918
vt 0.652842 0.411551
vt 0.329573 0.430869
vt 0.526137 0.590310
vt 0.477860 0.619874
vt 0.498813 0.550833
vt 0.134388 0.665473
vt 0.096638 0.702048
vt 0.069753 0.630520
vt 0.540259 0.441022
vt 0.524936 0.500286
vt 0.477860 0.432686
vt 0.636442 0.343051
vt 0.596684 0.383996
vt 0.593872 0.302838
vt 0.370955 0.347744
vt 0.018927 0.919353
vt 0.016113 0.861744
vt 0.069094 0.903274
vt 0.126704 0.593789
vt 0.531015 0.359335
vt 0.627731 0.295115
vt 0.321146 0.292104
vt 0.279831 0.344119
vt 0.256574 0.291715
vt 0.126179 0.862566
vt 0.070814 0.825050
vt 0.138444 0.795083
vt 0.119049 0.527848
vt 0.060592 0.549244
vt 0.070900 0.486773
vt 0.737365 0.931239
vt 0.696001 0.858526
vt 0.770547 0.866029
vt 0.264060 0.426657
vt 0.240804 0.458798
vt 0.228170 0.366324
vt 0.838432 0.863396
vt 0.809216 0.801178
vt 0.793757 0.944435
vt 0.738932 0.790742
vt 0.677181 0.795318
vt 0.190990 0.779743
vt 0.136659 0.734274
vt 0.189038 0.854333
vt 0.080484 0.746382
vt 0.032421 0.788591
vt 0.863735 0.790742
vt 0.299155 0.489094
vt 0.284302 0.515545
vt 0.750832 0.983887
vt 0.477860 0.344767
vt 0.537051 0.291715
vt 0.181908 0.557412
vt 0.151444 0.488440
vt 0.016113 0.582795
vt 0.192321 0.639162
vt 0.146044 0.919353
vt 0.026969 0.651664
vt 0.587942 0.618301
vt 0.566499 0.552420
vt 0.398242 0.303081
vt 0.445634 0.370529
vt 0.341668 0.519433
vt 0.604741 0.518607
vt 0.177676 0.702048
vt 0.644956 0.654119
vt 0.407284 0.513402
vt 0.494486 0.761384
vt 0.228170 0.255959
vt 0.016113 0.453451
vt 0.908037 0.291715
vt 0.417318 0.790185
vt 0.275509 0.882457
vt 0.410805 0.750642
vt 0.334943 0.885062
vt 0.030808 0.016113
vt 0.410805 0.551659
s 0
f 1/1/1 6/2/1 4/3/1
f 2/4/2 6/5/2 3/6/2
f 2/7/3 4/8/3 5/9/3
f 14/10/4 7/11/4 16/12/4
f 14/13/5 8/14/5 9/15/5
f 16/16/6 8/17/6 13/18/6
f 7/19/7 9/20/7 10/21/7
f 9/22/8 8/23/8 10/24/8
f 8/25/9 7/19/9 10/21/9
f 5/9/10 12/26/10 13/27/10
f 5/28/11 11/29/11 6/5/11
f 4/30/12 11/31/12 12/32/12
f 16/33/13 17/34/13 18/35/13
f 11/29/14 13/36/14 14/13/14
f 11/37/15 16/12/15 12/38/15
f 17/39/16 19/40/16 20/41/16
f 16/42/17 15/43/17 12/44/17
f 12/26/18 17/45/18 13/27/18
f 20/46/19 19/47/19 22/48/19
f 18/49/20 19/50/20 15/43/20
f 17/34/21 21/51/21 18/35/21
f 19/50/22 21/52/22 22/53/22
f 21/54/23 20/55/23 22/56/23
f 23/57/24 36/58/24 35/59/24
f 24/60/25 36/61/25 38/62/25
f 23/57/26 35/59/26 40/63/26
f 23/57/27 40/63/27 42/64/27
f 23/65/28 42/66/28 39/67/28
f 24/60/29 38/62/29 45/68/29
f 25/69/30 37/70/30 47/71/30
f 26/72/31 41/73/31 49/74/31
f 27/75/32 43/76/32 51/77/32
f 28/78/33 44/79/33 53/80/33
f 24/60/34 45/68/34 48/81/34
f 25/69/35 47/71/35 50/82/35
f 26/83/36 49/84/36 52/85/36
f 27/75/37 51/77/37 54/86/37
f 28/78/38 53/80/38 46/87/38
f 29/88/39 55/89/39 60/90/39
f 30/91/40 56/92/40 62/93/40
f 31/94/41 57/95/41 63/96/41
f 32/97/42 58/98/42 64/99/42
f 33/100/43 59/101/43 61/102/43
f 61/102/44 64/99/44 34/103/44
f 61/102/45 59/101/45 64/99/45
f 59/101/46 32/97/46 64/99/46
f 64/99/47 63/104/47 34/103/47
f 64/99/48 58/98/48 63/104/48
f 58/98/49 31/105/49 63/104/49
f 63/106/50 62/93/50 34/107/50
f 63/106/51 57/108/51 62/93/51
f 57/108/52 30/91/52 62/93/52
f 62/93/53 60/90/53 34/107/53
f 62/93/54 56/92/54 60/90/54
f 56/92/55 29/88/55 60/90/55
f 60/109/56 61/102/56 34/103/56
f 60/109/57 55/110/57 61/102/57
f 55/110/58 33/100/58 61/102/58
f 46/111/59 59/112/59 33/113/59
f 46/87/60 53/80/60 59/114/60
f 53/115/61 32/97/61 59/101/61
f 54/86/62 58/116/62 32/117/62
f 54/86/63 51/77/63 58/116/63
f 51/118/64 31/94/64 58/119/64
f 52/85/65 57/95/65 31/94/65
f 52/85/66 49/84/66 57/95/66
f 49/84/67 30/120/67 57/95/67
f 50/121/68 56/92/68 30/91/68
f 50/121/69 47/122/69 56/92/69
f 47/122/70 29/88/70 56/92/70
f 48/81/71 55/123/71 29/124/71
f 48/81/72 45/68/72 55/123/72
f 45/68/73 33/113/73 55/123/73
f 53/80/74 54/86/74 32/117/74
f 53/80/75 44/79/75 54/86/75
f 44/79/76 27/75/76 54/86/76
f 51/118/77 52/85/77 31/94/77
f 51/118/78 43/125/78 52/85/78
f 43/125/79 26/83/79 52/85/79
f 49/84/80 50/126/80 30/120/80
f 49/74/81 41/73/81 50/82/81
f 41/73/82 25/69/82 50/82/82
f 47/127/83 48/81/83 29/124/83
f 47/127/84 37/128/84 48/81/84
f 37/128/85 24/60/85 48/81/85
f 45/68/86 46/111/86 33/113/86
f 45/68/87 38/62/87 46/111/87
f 38/62/88 28/129/88 46/111/88
f 39/67/89 44/79/89 28/78/89
f 39/67/90 42/66/90 44/79/90
f 42/66/91 27/75/91 44/79/91
f 42/66/92 43/76/92 27/75/92
f 42/66/93 40/130/93 43/76/93
f 40/63/94 26/72/94 43/131/94
f 40/63/95 41/73/95 26/72/95
f 40/63/96 35/59/96 41/73/96
f 35/59/97 25/69/97 41/73/97
f 38/132/98 39/67/98 28/78/98
f 38/62/99 36/61/99 39/133/99
f 36/58/100 23/57/100 39/134/100
f 35/59/101 37/70/101 25/69/101
f 35/59/102 36/58/102 37/70/102
f 36/58/103 24/135/103 37/70/103
f 65/136/104 78/137/104 77/138/104
f 66/139/105 78/140/105 80/141/105
f 65/136/106 77/138/106 82/142/106
f 65/136/107 82/142/107 84/143/107
f 65/144/108 84/145/108 81/146/108
f 66/139/109 80/141/109 87/147/109
f 67/148/110 79/149/110 89/150/110
f 68/151/111 83/152/111 91/153/111
f 69/154/112 85/155/112 93/156/112
f 70/157/113 86/158/113 95/159/113
f 66/139/114 87/147/114 90/160/114
f 67/161/115 89/162/115 92/163/115
f 68/151/116 91/153/116 94/164/116
f 69/154/117 93/156/117 96/165/117
f 70/157/118 95/159/118 88/166/118
f 71/167/119 97/168/119 102/169/119
f 72/170/120 98/171/120 104/172/120
f 73/173/121 99/174/121 105/175/121
f 74/176/122 100/177/122 106/178/122
f 75/179/123 101/180/123 103/181/123
f 103/182/124 106/178/124 76/183/124
f 103/182/125 101/184/125 106/178/125
f 101/184/126 74/176/126 106/178/126
f 106/178/127 105/185/127 76/183/127
f 106/178/128 100/177/128 105/185/128
f 100/177/129 73/186/129 105/185/129
f 105/187/130 104/172/130 76/188/130
f 105/187/131 99/189/131 104/172/131
f 99/189/132 72/170/132 104/172/132
f 104/172/133 102/190/133 76/188/133
f 104/172/134 98/171/134 102/190/134
f 98/171/135 71/191/135 102/190/135
f 102/192/136 103/182/136 76/183/136
f 102/169/137 97/168/137 103/181/137
f 97/168/138 75/179/138 103/181/138
f 88/193/139 101/180/139 75/179/139
f 88/193/140 95/194/140 101/180/140
f 95/195/141 74/176/141 101/184/141
f 96/165/142 100/196/142 74/197/142
f 96/165/143 93/156/143 100/196/143
f 93/198/144 73/173/144 100/199/144
f 94/164/145 99/174/145 73/173/145
f 94/164/146 91/153/146 99/174/146
f 91/153/147 72/200/147 99/174/147
f 92/163/148 98/171/148 72/170/148
f 92/163/149 89/162/149 98/171/149
f 89/162/150 71/191/150 98/171/150
f 90/160/151 97/168/151 71/167/151
f 90/160/152 87/147/152 97/168/152
f 87/147/153 75/179/153 97/168/153
f 95/159/154 96/165/154 74/197/154
f 95/159/155 86/158/155 96/165/155
f 86/158/156 69/154/156 96/165/156
f 93/198/157 94/164/157 73/173/157
f 93/198/158 85/201/158 94/164/158
f 85/201/159 68/151/159 94/164/159
f 91/202/160 92/163/160 72/170/160
f 91/153/161 83/152/161 92/203/161
f 83/204/162 67/148/162 92/205/162
f 89/206/163 90/160/163 71/167/163
f 89/206/164 79/207/164 90/160/164
f 79/207/165 66/139/165 90/160/165
f 87/147/166 88/193/166 75/179/166
f 87/147/167 80/141/167 88/193/167
f 80/141/168 70/208/168 88/193/168
f 81/146/169 86/158/169 70/157/169
f 81/146/170 84/145/170 86/158/170
f 84/145/171 69/154/171 86/158/171
f 84/145/172 85/155/172 69/154/172
f 84/145/173 82/209/173 85/155/173
f 82/210/174 68/151/174 85/201/174
f 82/142/175 83/204/175 68/211/175
f 82/142/176 77/138/176 83/204/176
f 77/138/177 67/148/177 83/204/177
f 80/141/178 81/212/178 70/208/178
f 80/141/179 78/140/179 81/212/179
f 78/137/180 65/136/180 81/213/180
f 77/138/181 79/149/181 67/148/181
f 77/138/182 78/137/182 79/149/182
f 78/140/183 66/139/183 79/207/183
f 1/1/184 3/214/184 6/2/184
f 2/4/185 5/28/185 6/5/185
f 2/7/186 1/215/186 4/8/186
f 14/10/187 9/216/187 7/11/187
f 14/13/188 13/36/188 8/14/188
f 16/16/189 7/217/189 8/17/189
f 5/9/190 4/8/190 12/26/190
f 5/28/191 13/36/191 11/29/191
f 4/30/192 6/218/192 11/31/192
f 16/33/193 13/219/193 17/34/193
f 11/37/194 14/10/194 16/12/194
f 17/39/195 15/220/195 19/40/195
f 16/42/196 18/49/196 15/43/196
f 12/26/197 15/221/197 17/45/197
f 18/49/198 21/52/198 19/50/198
f 17/34/199 20/222/199 21/51/199
